<svg aria-hidden="true" style="position: absolute; width: 0; height: 0; overflow: hidden;" version="1.1" xmlns="http://www.w3.org/2000/svg" xmlns:xlink="http://www.w3.org/1999/xlink">
    <defs>
        <symbol id="icon-add" viewBox="0 0 34 32">
            <path d="M2.136 16.522c0-0.637 0.228-1.184 0.685-1.641s1.004-0.685 1.641-0.685h10.619v-10.601c0-0.637 0.222-1.184 0.667-1.641s0.992-0.685 1.641-0.685c0.637 0 1.184 0.228 1.641 0.685s0.685 1.004 0.685 1.641v10.601h10.619c0.625 0 1.166 0.228 1.622 0.685s0.685 1.004 0.685 1.641c0 0.649-0.228 1.202-0.685 1.659-0.457 0.445-0.997 0.667-1.622 0.667h-10.619v10.619c0 0.625-0.228 1.166-0.685 1.623s-1.004 0.685-1.641 0.685c-0.649 0-1.196-0.228-1.641-0.685s-0.667-0.998-0.667-1.623v-10.619h-10.619c-0.637 0-1.184-0.222-1.641-0.667-0.457-0.457-0.685-1.010-0.685-1.659z"></path>
        </symbol>
        <symbol id="icon-time" viewBox="0 0 32 32">
            <path d="M9.738 18.221h6.48c0.374 0 0.688-0.128 0.943-0.383s0.383-0.57 0.383-0.943v-8.504c0-0.365-0.128-0.674-0.383-0.93s-0.57-0.383-0.943-0.383c-0.374 0-0.688 0.128-0.943 0.383s-0.383 0.565-0.383 0.93v7.178h-5.154c-0.374 0-0.688 0.128-0.943 0.383s-0.383 0.57-0.383 0.943c0 0.374 0.128 0.688 0.383 0.943s0.57 0.383 0.943 0.383zM16.218 30.566c-1.978 0-3.837-0.378-5.578-1.135-1.741-0.747-3.277-1.786-4.607-3.117-1.331-1.322-2.374-2.853-3.131-4.594-0.747-1.741-1.121-3.605-1.121-5.592 0-1.978 0.374-3.837 1.121-5.578 0.757-1.741 1.796-3.277 3.117-4.607 1.331-1.331 2.867-2.37 4.607-3.117 1.75-0.757 3.614-1.135 5.592-1.135s3.837 0.378 5.578 1.135c1.75 0.747 3.286 1.786 4.607 3.117 1.331 1.331 2.374 2.867 3.131 4.607s1.135 3.6 1.135 5.578c0 1.987-0.378 3.851-1.135 5.592s-1.8 3.272-3.131 4.594c-1.322 1.331-2.853 2.37-4.594 3.117-1.741 0.757-3.605 1.135-5.592 1.135z"></path>
        </symbol>
        <symbol id="icon-close" viewBox="0 0 35 32">
            <path d="M3.162 30.051c-0.271-0.259-0.449-0.566-0.535-0.923s-0.086-0.714 0-1.071c0.098-0.357 0.277-0.659 0.535-0.905l11.338-11.375-11.338-11.357c-0.259-0.246-0.431-0.548-0.517-0.905s-0.086-0.714 0-1.071c0.086-0.357 0.259-0.665 0.517-0.923 0.271-0.271 0.585-0.449 0.942-0.535s0.714-0.086 1.071 0c0.357 0.086 0.665 0.259 0.923 0.517l11.357 11.357 11.338-11.357c0.259-0.271 0.566-0.443 0.923-0.517 0.357-0.086 0.708-0.086 1.053 0 0.357 0.086 0.677 0.265 0.96 0.536 0.259 0.259 0.431 0.566 0.517 0.923 0.098 0.357 0.098 0.714 0 1.071-0.086 0.345-0.259 0.652-0.517 0.923l-11.338 11.338 11.338 11.357c0.259 0.271 0.431 0.585 0.517 0.942 0.086 0.345 0.086 0.696 0 1.053s-0.259 0.665-0.517 0.923c-0.271 0.271-0.585 0.449-0.942 0.536s-0.714 0.086-1.071 0c-0.357-0.086-0.665-0.259-0.923-0.517l-11.338-11.356-11.357 11.356c-0.259 0.259-0.566 0.431-0.923 0.517-0.345 0.086-0.702 0.086-1.071 0-0.357-0.086-0.671-0.265-0.942-0.536z"></path>
        </symbol>
        <symbol id="icon-favorite" viewBox="0 0 32 32">
            <path d="M6.43 29.866c-0.36-0.274-0.579-0.635-0.656-1.081s-0.017-0.956 0.18-1.531l2.561-7.618-6.537-4.697c-0.498-0.352-0.849-0.729-1.055-1.132-0.206-0.412-0.232-0.836-0.077-1.274 0.146-0.429 0.416-0.746 0.811-0.952 0.403-0.214 0.905-0.317 1.506-0.309l8.029 0.064 2.445-7.669c0.189-0.592 0.442-1.042 0.759-1.351 0.326-0.317 0.716-0.476 1.171-0.476s0.841 0.159 1.158 0.476c0.326 0.309 0.583 0.759 0.772 1.351l2.432 7.669 8.029-0.064c0.609-0.009 1.111 0.094 1.506 0.309 0.403 0.206 0.678 0.528 0.824 0.965s0.116 0.858-0.090 1.261c-0.197 0.403-0.545 0.781-1.042 1.132l-6.55 4.697 2.574 7.618c0.197 0.575 0.257 1.085 0.18 1.531s-0.3 0.806-0.669 1.081c-0.369 0.283-0.776 0.386-1.222 0.309-0.446-0.069-0.918-0.283-1.416-0.643l-6.485-4.774-6.498 4.774c-0.489 0.36-0.961 0.575-1.415 0.643-0.446 0.077-0.854-0.026-1.222-0.309z"></path>
        </symbol>
        <symbol id="icon-delete" viewBox="0 0 28 32">
            <path d="M7.188 6.41v-2.529c0-1.030 0.314-1.841 0.943-2.434 0.638-0.602 1.504-0.902 2.598-0.902h5.182c1.094 0 1.955 0.301 2.584 0.902 0.638 0.592 0.957 1.404 0.957 2.434v2.529h-2.461v-2.393c0-0.346-0.109-0.624-0.328-0.834s-0.515-0.314-0.889-0.314h-4.895c-0.374 0-0.67 0.105-0.889 0.314s-0.328 0.488-0.328 0.834v2.393h-2.475zM1.117 8.037c-0.273 0-0.515-0.1-0.725-0.301-0.201-0.21-0.301-0.456-0.301-0.738 0-0.273 0.1-0.51 0.301-0.711 0.21-0.21 0.451-0.314 0.725-0.314h24.432c0.283 0 0.524 0.1 0.725 0.301s0.301 0.442 0.301 0.725-0.1 0.529-0.301 0.738c-0.2 0.201-0.442 0.301-0.725 0.301h-24.432zM23.512 7.75l-0.889 20.262c-0.036 0.848-0.301 1.499-0.793 1.955-0.483 0.456-1.148 0.684-1.996 0.684h-13.002c-0.839 0-1.504-0.228-1.996-0.684-0.483-0.456-0.743-1.107-0.779-1.955l-0.889-20.262h20.344zM9.006 26.74c0.264 0 0.474-0.073 0.629-0.219 0.155-0.155 0.228-0.351 0.219-0.588l-0.41-14.902c-0.009-0.237-0.096-0.428-0.26-0.574-0.155-0.146-0.351-0.219-0.588-0.219-0.264 0-0.474 0.077-0.629 0.232-0.155 0.146-0.232 0.337-0.232 0.574l0.424 14.889c0 0.246 0.077 0.442 0.232 0.588 0.164 0.146 0.369 0.219 0.615 0.219zM13.34 26.74c0.255 0 0.465-0.073 0.629-0.219 0.164-0.155 0.246-0.351 0.246-0.588v-14.889c0-0.237-0.082-0.428-0.246-0.574-0.164-0.155-0.374-0.232-0.629-0.232-0.264 0-0.479 0.077-0.643 0.232-0.164 0.146-0.246 0.337-0.246 0.574v14.889c0 0.237 0.082 0.433 0.246 0.588 0.164 0.146 0.378 0.219 0.643 0.219zM17.66 26.74c0.246 0 0.447-0.073 0.602-0.219 0.164-0.146 0.246-0.342 0.246-0.588l0.424-14.889c0-0.237-0.077-0.428-0.232-0.574-0.155-0.155-0.365-0.232-0.629-0.232-0.237 0-0.438 0.073-0.602 0.219-0.155 0.146-0.237 0.342-0.246 0.588l-0.41 14.889c-0.009 0.237 0.064 0.433 0.219 0.588 0.155 0.146 0.365 0.219 0.629 0.219z"></path>
        </symbol>
    </defs>
</svg>